Coordinates
version=1
nRows=34
nColumns=38
inDegrees=no

Units are S.I. units (second, meters, Newtons, ...)
If the header above contains a line with 'inDegrees', this indicates whether rotational values are in degrees (yes) or radians (no).

endheader
time	pelvis_tilt	pelvis_list	pelvis_rotation	pelvis_tx	pelvis_ty	pelvis_tz	hip_flexion_r	hip_adduction_r	hip_rotation_r	knee_angle_r	ankle_angle_r	subtalar_angle_r	mtp_angle_r	hip_flexion_l	hip_adduction_l	hip_rotation_l	knee_angle_l	ankle_angle_l	subtalar_angle_l	mtp_angle_l	lumbar_extension	lumbar_bending	lumbar_rotation	arm_flex_r	arm_add_r	arm_rot_r	elbow_flex_r	pro_sup_r	wrist_flex_r	wrist_dev_r	arm_flex_l	arm_add_l	arm_rot_l	elbow_flex_l	pro_sup_l	wrist_flex_l	wrist_dev_l
15	2.36333	1.46585	-0.522666	0.660747	-1.06012	0.939016	-0.178704	0.102268	-0.115525	0	-0.351026	0	0	0.0539113	-0.173207	-0.143986	0.715248	-0.159072	0	0	-0.267922	0.207005	0.156555	0.637254	-0.230134	0.00481496	1.38897	1.5708	0	0	-0.0185916	-0.485206	-0.475341	1.38763	1.5708	0	0
15.01	2.45713	1.45752	-0.610691	0.657794	-1.06408	0.9396	-0.146061	0.0663861	0.079823	0.0440412	-0.312137	0	0	0.0243793	-0.169696	-0.140185	0.697325	-0.155385	0	0	-0.284183	0.213254	0.154744	0.634203	-0.239352	0.00534009	1.40644	1.5708	0	0	-0.0113072	-0.484166	-0.458167	1.36873	1.5708	0	0
15.02	2.24507	1.46995	-0.413651	0.65774	-1.06836	0.937473	-0.17881	0.0685149	0.0238305	0	-0.316581	0	0	0.0426033	-0.168786	-0.159133	0.69594	-0.154044	0	0	-0.257228	0.208449	0.160737	0.630194	-0.237888	0.00901841	1.4035	1.5708	0	0	-0.0169262	-0.480172	-0.45524	1.35377	1.5708	0	0
15.03	2.14541	1.47333	-0.309832	0.655351	-1.07082	0.936349	-0.166116	0.0669129	-0.0294034	0	-0.344371	0	0	0.0387361	-0.166939	-0.163438	0.678852	-0.151383	0	0	-0.239074	0.213685	0.151648	0.621969	-0.237227	0.0118819	1.40553	1.5708	0	0	0.00341976	-0.479382	-0.454797	1.33595	1.5708	0	0
15.04	2.12831	1.47204	-0.288282	0.654219	-1.07427	0.93544	-0.172113	0.0801505	-0.0443376	0	-0.360288	0	0	0.0234165	-0.165375	-0.155284	0.651942	-0.145926	0	0	-0.236652	0.209122	0.144226	0.616619	-0.237667	0.00968094	1.41036	1.5708	0	0	-0.0214827	-0.480473	-0.439184	1.32167	1.5708	0	0
15.05	2.16299	1.4682	-0.319409	0.651815	-1.07814	0.935629	-0.162064	0.0710293	-0.0401157	0	-0.380075	0	0	0.000881793	-0.161005	-0.151109	0.614247	-0.136677	0	0	-0.24096	0.213522	0.138089	0.616047	-0.239903	0.0120941	1.41411	1.5708	0	0	-0.0216554	-0.485748	-0.420011	1.30369	1.5708	0	0
15.06	2.32829	1.45475	-0.473595	0.649313	-1.08159	0.937281	-0.111035	0.0662633	0.0875862	0.0555213	-0.297862	0	0	-0.0423669	-0.160408	-0.142041	0.564134	-0.122424	0	0	-0.263864	0.220369	0.12716	0.617019	-0.241251	0.0129322	1.42057	1.5708	0	0	-0.018418	-0.490505	-0.404491	1.28875	1.5708	0	0
15.07	2.31962	1.44938	-0.460313	0.647721	-1.08523	0.937258	-0.0895105	0.0830169	0.0228045	0.102288	-0.272061	0	0	-0.0591533	-0.161683	-0.139059	0.525244	-0.117765	0	0	-0.265675	0.224911	0.121465	0.613436	-0.242339	0.0115469	1.42704	1.5708	0	0	-0.0168763	-0.491896	-0.392562	1.27397	1.5708	0	0
15.08	2.28677	1.45282	-0.427829	0.645549	-1.08953	0.936503	-0.0981637	0.0671101	0.08052	0.0631028	-0.285289	0	0	-0.0675503	-0.15233	-0.136094	0.490598	-0.113314	0	0	-0.261235	0.223571	0.117594	0.611804	-0.245303	0.0132363	1.43136	1.5708	0	0	-0.0164537	-0.490973	-0.381344	1.25912	1.5708	0	0
15.09	2.27953	1.4533	-0.418436	0.643751	-1.09369	0.93613	-0.0889674	0.0640881	0.0790387	0.0740399	-0.284969	0	0	-0.0764366	-0.148159	-0.139581	0.465239	-0.111735	0	0	-0.260931	0.222721	0.11127	0.611206	-0.247172	0.0158673	1.43451	1.5708	0	0	-0.0156231	-0.490821	-0.372066	1.24522	1.5708	0	0
15.1	2.22135	1.45138	-0.356558	0.643306	-1.09747	0.935832	-0.129555	0.0660874	0.135793	0	-0.310043	0	0	-0.0770195	-0.152367	-0.144032	0.445447	-0.111056	0	0	-0.256158	0.223196	0.105419	0.606759	-0.246166	0.0145744	1.43895	1.5708	0	0	-0.0137699	-0.493076	-0.362496	1.23188	1.5708	0	0
15.11	2.27734	1.45086	-0.409031	0.64087	-1.10219	0.936415	-0.10911	0.0674084	0.0837112	0	-0.329376	0	0	-0.0936561	-0.14339	-0.143941	0.415805	-0.112654	0	0	-0.265874	0.221799	0.0999104	0.607773	-0.249175	0.0148608	1.44551	1.5708	0	0	-0.00847567	-0.49498	-0.345764	1.21656	1.5708	0	0
15.12	2.22519	1.46167	-0.35625	0.63849	-1.10737	0.935499	-0.0632119	0.049879	0.0726222	0.0814645	-0.293216	0	0	-0.0891951	-0.126763	-0.14081	0.393607	-0.115589	0	0	-0.258496	0.213692	0.0942184	0.606517	-0.252385	0.0149483	1.45189	1.5708	0	0	-0.00532447	-0.494194	-0.333456	1.20248	1.5708	0	0
15.13	2.20539	1.46486	-0.332749	0.636604	-1.11216	0.935214	-0.0546574	0.0445564	0.0719956	0.0837099	-0.290754	0	0	-0.0885281	-0.120254	-0.145848	0.379097	-0.116788	0	0	-0.258096	0.21011	0.0868275	0.606091	-0.25424	0.0150408	1.45717	1.5708	0	0	-0.00244755	-0.493562	-0.324863	1.19127	1.5708	0	0
15.14	2.19057	1.46572	-0.312015	0.634965	-1.11671	0.935307	-0.0362757	0.0495307	0.0279096	0.10531	-0.285581	0	0	-0.0915801	-0.115346	-0.142338	0.356658	-0.121805	0	0	-0.25918	0.208247	0.0800415	0.602969	-0.256491	0.0123138	1.46437	1.5708	0	0	0.00317059	-0.496871	-0.30861	1.17811	1.5708	0	0
15.15	2.09309	1.46643	-0.210406	0.633963	-1.12141	0.934465	-0.0905877	0.0371758	0.123928	0	-0.320731	0	0	-0.0810777	-0.114821	-0.143958	0.345481	-0.123132	0	0	-0.253048	0.20794	0.0757776	0.596968	-0.25693	0.00602472	1.47305	1.5708	0	0	0.00780174	-0.49767	-0.297801	1.16826	1.5708	0	0
15.16	2.09616	1.46769	-0.211999	0.632067	-1.12629	0.934327	-0.0663645	0.0375291	0.10647	0	-0.347638	0	0	-0.0879148	-0.107246	-0.140833	0.321826	-0.127107	0	0	-0.25641	0.205486	0.0703629	0.599761	-0.261802	0.010211	1.47829	1.5708	0	0	0.0104013	-0.498747	-0.287265	1.15949	1.5708	0	0
15.17	1.98177	1.475	-0.0969666	0.629818	-1.1316	0.932957	-0.00760687	0.0266449	0.0682843	0.086554	-0.307371	0	0	-0.0821036	-0.0924597	-0.121695	0.29526	-0.132314	0	0	-0.247296	0.199602	0.0655682	0.598114	-0.266606	0.0100155	1.4862	1.5708	0	0	0.0131395	-0.497241	-0.277477	1.15097	1.5708	0	0
15.18	1.91154	1.46981	-0.0225475	0.629266	-1.13563	0.932371	-0.0496882	0.0263632	0.143718	0	-0.336349	0	0	-0.0766809	-0.098248	-0.118304	0.284296	-0.1331	0	0	-0.243592	0.201344	0.0594968	0.594295	-0.26612	0.00764705	1.49304	1.5708	0	0	0.0145583	-0.498488	-0.271944	1.14512	1.5708	0	0
15.19	1.88347	1.47382	0.00176882	0.627159	-1.14139	0.932049	0.0191388	0.0223996	0.0706791	0.103515	-0.30631	0	0	-0.0786909	-0.0857799	-0.104871	0.262802	-0.138115	0	0	-0.248479	0.197212	0.0596672	0.59768	-0.27072	0.00886568	1.5018	1.5708	0	0	0.0199318	-0.496171	-0.262265	1.13756	1.5708	0	0
15.2	1.87176	1.47457	0.0127385	0.626071	-1.14594	0.93215	0.023231	0.0245474	0.0542787	0.0953661	-0.306864	0	0	-0.082437	-0.0813493	-0.0971671	0.24249	-0.141822	0	0	-0.253088	0.193245	0.0567536	0.597679	-0.271452	0.00823384	1.50853	1.5708	0	0	0.0228071	-0.496092	-0.256586	1.13164	1.5708	0	0
15.21	1.79935	1.48893	0.0890444	0.625581	-1.14858	0.929964	-0.0163222	0.018876	0.0512973	0	-0.334012	0	0	-0.072533	-0.0671179	-0.100342	0.24599	-0.143368	0	0	-0.244956	0.171932	0.0447345	0.590112	-0.265564	0.00411445	1.51547	1.5708	0	0	0.0187476	-0.504564	-0.252281	1.13078	1.5708	0	0
15.22	1.19788	1.50852	0.690364	0.625133	-1.15037	0.924131	0.00578835	-0.0119183	0.0197999	0	-0.353745	0	0	-0.0350946	-0.0311704	-0.103539	0.250456	-0.141425	0	0	-0.201	0.131745	0.0289622	0.575222	-0.253246	0.000779764	1.51946	1.5708	0	0	0.0329991	-0.501996	-0.27886	1.12444	1.5708	0	0
15.23	0.999462	1.51155	0.879716	0.629078	-1.15423	0.922757	0.0156683	-0.038248	0.16425	0	-0.367668	0	0	-0.0752733	-0.0803963	-0.121813	0	-0.195963	0	0	-0.199253	0.106189	0.0326802	0.562482	-0.240524	-0.00353601	1.51615	1.5708	0	0	0.0353081	-0.514204	-0.271257	1.12328	1.5708	0	0
15.24	0.776729	1.5084	1.10181	0.625135	-1.15807	0.921294	-0.0155642	-0.0476577	0.100082	0	-0.361957	0	0	-0.0116773	-0.00876941	-0.121345	0.249604	-0.148342	0	0	-0.189686	0.0977517	0.0269174	0.569032	-0.247682	-0.00369868	1.5278	1.5708	0	0	0.00477391	-0.531243	-0.229958	1.12306	1.5708	0	0
15.25	0.928008	1.51512	0.947221	0.625488	-1.16378	0.923196	0.0305806	-0.0496477	0.150826	0	-0.371485	0	0	-0.0169406	-0.0118361	-0.121508	0.249917	-0.14897	0	0	-0.209973	0.099126	0.0284313	0.566588	-0.245553	-0.00131657	1.52532	1.5708	0	0	0.0177396	-0.53117	-0.21815	1.11838	1.5708	0	0
15.26	0.915816	1.51331	0.9531	0.624933	-1.16745	0.923489	0.0371832	-0.051509	0.163098	0	-0.382237	0	0	-0.0127922	-0.0100657	-0.125512	0.247387	-0.150343	0	0	-0.211713	0.0969004	0.0312034	0.564208	-0.247227	0.00046908	1.53122	1.5708	0	0	0.0205571	-0.530676	-0.210477	1.10956	1.5708	0	0
15.27	0.887936	1.51051	0.9755	0.624217	-1.17079	0.923505	0.0387767	-0.055614	0.176531	0	-0.389225	0	0	-0.00701072	-0.00754364	-0.124621	0.245592	-0.152114	0	0	-0.211172	0.0949334	0.0332959	0.561284	-0.248848	0.00170698	1.53705	1.5708	0	0	0.0225523	-0.530225	-0.202723	1.10097	1.5708	0	0
15.28	1.54694	1.48429	0.302544	0.620295	-1.17744	0.932699	0.0370605	0.0100491	-0.124272	0	-0.439789	0	0	-0.0390536	-0.0461312	-0.10539	0.211866	-0.178663	0	0	-0.260125	0.153194	0.0639708	0.580559	-0.287214	0.0104685	1.55655	1.5708	0	0	0.0512141	-0.504206	-0.179646	1.06377	1.5708	0	0
15.29	1.60353	1.48233	0.241647	0.61957	-1.18056	0.933608	0.0520051	0.0133456	-0.129624	0	-0.432203	0	0	-0.0437051	-0.0460375	-0.0965979	0.205225	-0.185013	0	0	-0.267849	0.154381	0.064156	0.580779	-0.279745	0.00716148	1.55936	1.5708	0	0	0.051537	-0.503087	-0.176103	1.05707	1.5708	0	0
15.3	1.59936	1.48063	0.241393	0.618565	-1.18342	0.933897	0.0422704	0.0174473	-0.122986	0	-0.435166	0	0	-0.0410281	-0.0441234	-0.0912128	0.203979	-0.18627	0	0	-0.269129	0.154441	0.0639002	0.578909	-0.280966	0.0105729	1.56352	1.5708	0	0	0.0503046	-0.500788	-0.173555	1.05058	1.5708	0	0
15.31	1.61553	1.47559	0.217979	0.617867	-1.18691	0.934546	0.035179	0.0208997	-0.103132	0	-0.439221	0	0	-0.0390931	-0.0460071	-0.0873581	0.2022	-0.187662	0	0	-0.276048	0.159526	0.070983	0.578007	-0.284687	0.0115057	1.57367	1.5708	0	0	0.0551003	-0.49706	-0.165843	1.04166	1.5708	0	0
15.32	1.65737	1.47259	0.172372	0.617365	-1.18907	0.935373	0.0503227	0.0170144	-0.118884	0	-0.433538	0	0	-0.042784	-0.0483831	-0.088669	0.197224	-0.193667	0	0	-0.279258	0.160179	0.0697908	0.575544	-0.285186	0.0175564	1.57421	1.5708	0	0	0.0532489	-0.498091	-0.160287	1.0345	1.5708	0	0
15.33	1.61371	1.46696	0.210332	0.617955	-1.19325	0.935637	0.0363085	0.00583096	0.0343936	0	-0.456722	0	0	-0.0297328	-0.0530863	-0.0855673	0.205025	-0.194153	0	0	-0.277784	0.161229	0.0740706	0.5655	-0.283665	0.0208554	1.57075	1.5708	0	0	0.0593265	-0.496203	-0.153279	1.03296	1.5708	0	0
